
<svg version="1.0" xmlns="http://www.w3.org/2000/svg"
 width="48.000000pt" height="48.000000pt" viewBox="0 0 48.000000 48.000000"
 preserveAspectRatio="xMidYMid meet">

<g transform="translate(0.000000,48.000000) scale(0.100000,-0.100000)"
fill="#000000" stroke="none">
<path d="M190 450 c-11 -11 -20 -30 -20 -43 0 -25 26 -67 41 -67 5 0 0 9 -11
20 -39 39 -14 100 43 100 53 0 76 -61 37 -100 -11 -11 -16 -20 -11 -20 15 0
41 42 41 67 0 32 -34 63 -70 63 -17 0 -39 -9 -50 -20z"/>
<path d="M52 384 c-12 -8 -22 -19 -22 -25 0 -5 9 0 20 11 40 40 100 16 100
-39 0 -55 -61 -80 -100 -41 -11 11 -20 16 -20 11 0 -15 42 -41 65 -41 32 0 65
36 65 70 0 58 -60 88 -108 54z"/>
<path d="M340 380 c-40 -40 -12 -120 43 -120 25 0 67 26 67 41 0 5 -9 0 -20
-11 -39 -39 -100 -14 -100 43 0 53 61 76 100 37 11 -11 20 -16 20 -11 0 15
-42 41 -67 41 -13 0 -32 -9 -43 -20z"/>
<path d="M200 285 c0 -8 7 -15 15 -15 8 0 15 7 15 15 0 8 -7 15 -15 15 -8 0
-15 -7 -15 -15z"/>
<path d="M250 285 c0 -8 7 -15 15 -15 8 0 15 7 15 15 0 8 -7 15 -15 15 -8 0
-15 -7 -15 -15z"/>
<path d="M175 250 c-7 -12 2 -30 16 -30 12 0 12 27 0 35 -5 3 -12 1 -16 -5z"/>
<path d="M284 246 c-8 -22 3 -33 18 -18 9 9 9 15 0 24 -9 9 -13 7 -18 -6z"/>
<path d="M52 204 c-12 -8 -22 -19 -22 -25 0 -5 9 0 20 11 39 39 100 14 100
-43 0 -53 -61 -76 -100 -37 -11 11 -20 16 -20 11 0 -15 42 -41 67 -41 55 0 83
80 43 120 -24 24 -57 26 -88 4z"/>
<path d="M340 200 c-40 -40 -12 -120 43 -120 25 0 67 26 67 41 0 5 -9 0 -20
-11 -40 -40 -100 -16 -100 39 0 55 61 80 100 41 11 -11 20 -16 20 -11 0 15
-42 41 -67 41 -13 0 -32 -9 -43 -20z"/>
<path d="M200 195 c0 -8 7 -15 15 -15 8 0 15 7 15 15 0 8 -7 15 -15 15 -8 0
-15 -7 -15 -15z"/>
<path d="M250 195 c0 -8 7 -15 15 -15 8 0 15 7 15 15 0 8 -7 15 -15 15 -8 0
-15 -7 -15 -15z"/>
<path d="M186 118 c-22 -31 -20 -64 4 -88 40 -40 120 -12 120 43 0 25 -26 67
-41 67 -5 0 0 -9 11 -20 40 -40 16 -100 -39 -100 -55 0 -80 61 -41 100 11 11
16 20 11 20 -6 0 -17 -10 -25 -22z"/>
</g>
</svg>
